<svg width="47" height="47" viewBox="0 0 47 47" fill="none" xmlns="http://www.w3.org/2000/svg">
<path d="M23.5 47C36.4787 47 47 36.4787 47 23.5C47 10.5213 36.4787 0 23.5 0C10.5213 0 0 10.5213 0 23.5C0 36.4787 10.5213 47 23.5 47Z" fill="#76BC21"/>
<path d="M26.6531 16.6441C29.018 16.0811 31.3829 15.2928 31.9459 13.8288C32.2838 13.0405 32.1712 12.1396 31.7207 11.464C31.1577 10.6757 30.1441 10.1126 29.018 10.1126C28.2297 10.1126 27.3288 10.4505 26.6531 10.9009C25.4144 11.9144 24.1757 14.0541 23.5 15.4054C22.8243 14.0541 21.6982 11.9144 20.4595 10.9009C19.6712 10.3378 18.7703 10 17.7568 10C16.518 10 15.5045 10.5631 14.9414 11.3514C14.491 12.027 14.491 12.9279 14.9414 13.8288C15.6171 15.1802 17.982 15.9685 20.3469 16.5315H11V23.4009H12.3513V36.2387H34.6487V23.4009H36V16.6441H26.6531ZM33.5225 23.4009V35.1126H26.6531V23.4009H33.5225ZM34.8739 17.6577V22.2748H26.6531V17.6577H34.8739ZM22.5991 15.9685C20.9099 15.6306 16.7432 14.7297 16.0676 13.3784C15.8423 12.8153 15.7297 12.3649 16.0676 11.9144C16.4054 11.464 17.0811 11.1261 17.8694 11.1261C18.545 11.1261 19.3333 11.3514 19.8964 11.8018C20.9099 12.7027 21.9234 14.7297 22.5991 15.9685ZM24.5135 15.9685C25.1892 14.7297 26.3153 12.7027 27.4414 11.8018C27.8919 11.464 28.4549 11.2387 29.1306 11.2387C29.9189 11.2387 30.5946 11.5766 30.9324 12.1396C31.1577 12.3649 31.2703 12.8153 31.0451 13.491C30.3694 14.7297 26.3153 15.6306 24.5135 15.9685ZM25.6396 17.6577V35.1126H21.473V17.6577H25.6396ZM20.3469 23.4009V35.1126H13.4775V23.4009H20.3469ZM20.3469 17.6577V22.2748H12.1261V17.6577H20.3469Z" fill="white"/>
</svg>