<svg width="47" height="47" viewBox="0 0 47 47" fill="none" xmlns="http://www.w3.org/2000/svg">
<path d="M23.5 47C36.4787 47 47 36.4787 47 23.5C47 10.5213 36.4787 0 23.5 0C10.5213 0 0 10.5213 0 23.5C0 36.4787 10.5213 47 23.5 47Z" fill="#76BC21"/>
<path d="M34.7354 23.8249L32.4008 20.1284C31.7198 19.2529 30.5525 18.6693 29.4825 18.6693H27.1479V16.1401C27.1479 14.9728 26.1751 14 25.0078 14H13.1401C11.9728 14 11 14.9728 11 16.1401V27.035V27.2296C11 27.9105 11 28.4942 11.3891 28.8833C11.5837 29.0778 11.8755 29.1751 12.1673 29.1751C12.1673 29.1751 12.1673 29.1751 12.2646 29.1751C12.2646 29.1751 12.3619 29.3697 12.2646 29.7588C12.2646 29.856 12.2646 29.856 12.2646 29.9533C12.2646 30.3424 12.3619 30.6342 12.6537 30.8288C13.0428 31.2179 13.7237 31.3152 14.4047 31.3152C14.5992 32.4825 15.6693 33.7471 17.2257 33.7471C18.6848 33.7471 19.8521 32.677 20.0467 31.3152H27.9261C28.1206 32.677 29.2879 33.7471 30.7471 33.7471C32.2062 33.7471 33.3735 32.677 33.5681 31.3152H33.8599C35.0272 31.3152 36 30.3424 36 29.1751V27.035C35.8054 25.965 35.3191 24.6031 34.7354 23.8249ZM30.5525 29.0778C31.5253 29.0778 32.3035 29.856 32.3035 30.8288C32.3035 31.8016 31.5253 32.5798 30.5525 32.5798C29.5798 32.5798 28.8015 31.8016 28.8015 30.8288C28.8015 29.9533 29.5798 29.0778 30.5525 29.0778ZM30.358 25.8677H34.5409C34.6381 26.2568 34.7354 26.6459 34.7354 26.9377V28.9805C34.7354 29.5642 34.249 30.0506 33.6654 30.0506H33.2763C32.9844 28.786 31.8171 27.9105 30.5525 27.9105C29.2879 27.9105 28.1206 28.786 27.8288 30.0506H27.2451V19.7393H28.2179V23.7276C28.1206 24.8949 29.0934 25.8677 30.358 25.8677ZM29.1907 23.7276V19.7393H29.4825C30.1634 19.7393 31.0389 20.1284 31.5253 20.7121L33.8599 24.4086C33.9572 24.5058 34.0545 24.7004 34.1517 24.8949H30.358C29.677 24.8949 29.1907 24.3113 29.1907 23.7276ZM17.0311 32.677C16.0584 32.677 15.2802 31.8988 15.2802 30.9261C15.2802 29.9533 16.0584 29.1751 17.0311 29.1751C18.0039 29.1751 18.7821 29.9533 18.7821 30.9261C18.7821 31.8988 18.0039 32.677 17.0311 32.677ZM12.8482 28.4942C12.751 28.3969 12.4591 28.2023 12.07 28.2023C11.9728 28.1051 11.9728 27.5214 11.9728 27.3269V16.2374C11.9728 15.6537 12.4591 15.1673 13.0428 15.1673H24.9105C25.4942 15.1673 25.9805 15.6537 25.9805 16.2374V30.3424H19.6576C19.3658 29.0778 18.1984 28.2023 16.9338 28.2023C15.6693 28.2023 14.5019 29.0778 14.2101 30.3424C13.821 30.3424 13.3346 30.3424 13.1401 30.2451C13.1401 30.2451 13.1401 30.1479 13.1401 30.0506V29.9533C13.2374 29.3697 13.2373 28.786 12.8482 28.4942Z" fill="white"/>
</svg>
