<svg width="47" height="47" viewBox="0 0 47 47" fill="none" xmlns="http://www.w3.org/2000/svg">
<path d="M23.5 47C36.4787 47 47 36.4787 47 23.5C47 10.5213 36.4787 0 23.5 0C10.5213 0 0 10.5213 0 23.5C0 36.4787 10.5213 47 23.5 47Z" fill="#76BC21"/>
<path d="M35.7024 16.3974L23.9449 11.1301C23.8576 11.0847 23.7673 11.0454 23.6745 11.0125H23.557C23.4557 10.9958 23.3525 10.9958 23.2513 11.0125L23.0867 11.0948L11.2822 16.3974C11.1959 16.4643 11.1257 16.5498 11.0769 16.6475C11.028 16.7452 11.0018 16.8526 11 16.9618V30.4711C11.0018 30.5803 11.028 30.6877 11.0769 30.7854C11.1257 30.883 11.1959 30.9685 11.2822 31.0354L23.216 36.3851H23.4982C23.6393 36.3851 23.7803 36.3851 23.7803 36.244L35.7141 30.8943C35.8005 30.8274 35.8706 30.742 35.9195 30.6443C35.9683 30.5466 35.9946 30.4392 35.9963 30.33V17.1146C36.009 16.9802 35.9888 16.8447 35.9376 16.7198C35.8865 16.5949 35.8057 16.4843 35.7024 16.3974ZM23.4982 12.1647L34.0799 16.8677L29.6355 18.843L19.0774 14.2811L23.4982 12.1647ZM22.8045 34.8213L12.117 30.1184V17.7965L22.8045 22.5818V34.8213ZM23.4982 21.5942L12.9165 16.8912L17.7723 14.7749L28.1776 19.4779L23.4982 21.5942ZM34.8794 30.1771L24.0508 34.9624V22.5818L28.7537 20.4655V23.1344C28.7537 23.281 28.812 23.4215 28.9156 23.5252C29.0192 23.6288 29.1598 23.687 29.3063 23.687C29.4529 23.687 29.5935 23.6288 29.6971 23.5252C29.8007 23.4215 29.8589 23.281 29.8589 23.1344V20.054L34.8559 17.9376L34.8794 30.1771Z" fill="white"/>
</svg>
